<svg xmlns="http://www.w3.org/2000/svg" xmlns:xlink="http://www.w3.org/1999/xlink" width="100" height="100" viewBox="0 0 100 100"><g><g transform="translate(50 50) scale(0.69 0.69) rotate(0) translate(-50 -50)" style="fill:#1c5fb0"><svg fill="#1c5fb0" xmlns="http://www.w3.org/2000/svg" xmlns:xlink="http://www.w3.org/1999/xlink" version="1.1" x="0px" y="0px" viewBox="0 0 100 100" enable-background="new 0 0 100 100" xml:space="preserve"><g><path d="M84.464,76.286c-0.019,0-0.035,0.005-0.054,0.006l-3.295-17.268c1.933-0.589,3.349-2.364,3.349-4.489   c0-2.432-1.85-4.411-4.215-4.664V33.669c1.349-0.237,2.375-1.408,2.375-2.824c0-1.588-1.287-2.875-2.875-2.875   c-0.557,0-1.071,0.165-1.512,0.438L68.128,17.126c0.047-0.191,0.078-0.389,0.078-0.595c0-1.393-1.129-2.521-2.521-2.521   c-1.222,0-2.239,0.869-2.471,2.021H29.161c-0.201-0.517-0.7-0.884-1.287-0.884c-0.764,0-1.384,0.619-1.384,1.384   c0,0.365,0.146,0.695,0.377,0.943l-11.18,23.316c-0.195-0.049-0.396-0.082-0.605-0.082c-1.381,0-2.5,1.119-2.5,2.5   c0,1.199,0.846,2.2,1.974,2.442l5.859,21.743c-0.977,0.459-1.657,1.445-1.657,2.596c0,1.588,1.287,2.875,2.875,2.875   c0.904,0,1.701-0.427,2.229-1.08l23.297,9.857c-0.094,0.31-0.159,0.632-0.159,0.973c0,1.864,1.512,3.375,3.375,3.375   s3.375-1.511,3.375-3.375c0-0.721-0.23-1.386-0.616-1.935l6.756-6.425c0.221,0.117,0.468,0.189,0.735,0.189   c0.551,0,1.034-0.283,1.317-0.71l19.595,5.24c-0.008,0.089-0.026,0.174-0.026,0.265c0,1.632,1.322,2.954,2.954,2.954   s2.954-1.322,2.954-2.954S86.096,76.286,84.464,76.286z M79.249,33.669v16.202c-1.397,0.149-2.616,0.89-3.376,1.988l-11.646-6.33   c0.007-0.054,0.017-0.107,0.017-0.164c0-0.157-0.032-0.306-0.081-0.445l13.777-11.858C78.312,33.366,78.756,33.582,79.249,33.669z    M75.15,55.55l-12.962,4.346l1.084-13.229c0.178-0.054,0.338-0.142,0.477-0.258l11.645,6.328c-0.229,0.555-0.359,1.161-0.359,1.799   C75.034,54.885,75.078,55.223,75.15,55.55z M23.732,42.238l12.991-8.042c0.536,0.44,1.214,0.717,1.963,0.717   c0.169,0,0.331-0.024,0.493-0.05l4.104,12.311c-0.864,0.477-1.457,1.385-1.457,2.441c0,0.118,0.021,0.23,0.034,0.345l-11.929,3.755   c-0.327-0.818-1.123-1.398-2.058-1.398c-0.37,0-0.714,0.1-1.021,0.26l-3.546-9.071c0.274-0.253,0.45-0.612,0.45-1.015   C23.758,42.403,23.747,42.32,23.732,42.238z M30.073,54.718l12.087-3.804c0.47,0.888,1.391,1.499,2.464,1.499   c0.142,0,0.277-0.021,0.414-0.042l3.439,10.056c-0.309,0.181-0.576,0.42-0.782,0.71l-17.736-7.872   C30.02,55.091,30.058,54.908,30.073,54.718z M44.624,46.817c-0.135,0-0.264,0.021-0.393,0.039l-4.104-12.313   c0.825-0.436,1.435-1.221,1.612-2.168l13.098,0.313c0.042,0.113,0.095,0.221,0.164,0.318l-9.277,14.037   C45.386,46.898,45.015,46.817,44.624,46.817z M55.835,33.559c0.092,0.021,0.188,0.031,0.286,0.031c0.078,0,0.153-0.01,0.228-0.022   l5.513,10.896c-0.173,0.193-0.289,0.435-0.328,0.702l-14.344,3.34c-0.148-0.345-0.367-0.65-0.634-0.906L55.835,33.559z    M57.207,33.049c0.093-0.121,0.164-0.258,0.213-0.406l19.538-1.135c0.068,0.285,0.182,0.552,0.327,0.798L63.51,44.162   C63.32,44.063,63.107,44,62.878,44c-0.043,0-0.082,0.009-0.124,0.013L57.207,33.049z M64.303,18.638   c0.397,0.261,0.871,0.415,1.382,0.415c0.801,0,1.505-0.38,1.967-0.961l9.845,10.986c-0.318,0.405-0.525,0.894-0.588,1.431   l-19.543,1.136c-0.049-0.106-0.112-0.203-0.186-0.292L64.303,18.638z M29.16,17.031h34.054c0.063,0.315,0.188,0.606,0.356,0.867   l-7.263,12.965c-0.062-0.009-0.123-0.019-0.187-0.019c-0.569,0-1.059,0.348-1.266,0.843l-13.102-0.313   c-0.211-1.513-1.497-2.683-3.067-2.683c-0.49,0-0.947,0.123-1.359,0.325l-8.301-11.724C29.081,17.213,29.124,17.124,29.16,17.031z    M28.097,17.894c0.038-0.007,0.075-0.014,0.112-0.023l8.297,11.718c-0.573,0.564-0.93,1.348-0.93,2.215   c0,0.601,0.179,1.157,0.475,1.634l-12.848,7.952c-0.024-0.019-0.047-0.038-0.073-0.056L28.097,17.894z M26.519,20.514   l-4.367,20.615c-0.533,0.087-0.961,0.478-1.104,0.99l-3.588,0.354c-0.155-0.504-0.461-0.937-0.871-1.248L26.519,20.514z    M21.633,67.115c-0.086,0-0.167,0.018-0.25,0.025l-5.79-21.484c1.053-0.219,1.851-1.102,1.964-2.188l3.589-0.354   c0.229,0.448,0.69,0.761,1.229,0.761c0.002,0,0.003-0.001,0.004-0.001l3.675,9.399c-0.249,0.358-0.396,0.793-0.396,1.262   c0,0.75,0.376,1.413,0.948,1.815l-4.361,10.833C22.046,67.141,21.843,67.115,21.633,67.115z M49.247,79.447   c-0.686,0.244-1.273,0.691-1.674,1.284l-23.228-9.828c0.097-0.288,0.162-0.592,0.162-0.913c0-1.022-0.537-1.914-1.341-2.424   l4.366-10.846c0.112,0.018,0.225,0.034,0.341,0.034c0.603,0,1.147-0.243,1.548-0.635l17.866,7.93   c-0.038,0.176-0.063,0.356-0.063,0.544c0,1.222,0.868,2.239,2.021,2.471V79.447z M49.424,62.104l-3.44-10.059   c0.197-0.11,0.381-0.239,0.545-0.392l12.505,9.299l-7.112,2.385c-0.436-0.753-1.241-1.266-2.174-1.266   C49.637,62.072,49.531,62.091,49.424,62.104z M60.248,71.335c-0.689,0.17-1.204,0.788-1.204,1.53c0,0.239,0.058,0.464,0.152,0.667   l-6.759,6.43c-0.572-0.445-1.282-0.722-2.063-0.722c-0.044,0-0.084,0.011-0.127,0.013V67.064c1.152-0.231,2.021-1.249,2.021-2.471   c0-0.105-0.019-0.206-0.03-0.308l7.773-2.606l0.97,0.722L60.248,71.335z M60.189,60.566L47.122,50.85   c0.186-0.374,0.3-0.789,0.3-1.234c0-0.047-0.012-0.09-0.014-0.135l14.347-3.341c0.132,0.19,0.313,0.343,0.521,0.445l-1.119,13.656   L60.189,60.566z M81.787,78.007l-19.593-5.239c-0.038-0.609-0.415-1.126-0.95-1.355l0.682-8.309l19.913,14.809   C81.822,77.944,81.803,77.974,81.787,78.007z M82.431,77.105L62.021,61.929l0.078-0.949l13.373-4.483   c0.746,1.621,2.375,2.753,4.276,2.753c0.131,0,0.255-0.028,0.383-0.039l3.297,17.272C83.054,76.623,82.716,76.834,82.431,77.105z"></path></g></svg></g></g></svg>